# xmcd CD database file
#
# Track frame offsets:
#	150
#	2330
#	20062
#	27951
#	29814
#	42294
#	47819
#	51902
#	67262
#	80980
#	86146
#	103962
#	115799
#	119027
#	126532
#	131265
#	138273
#	140371
#	146910
#	158324
#	172859
#	182341
#	201078
#	206732
#	209943
#	219686
#	220789
#	226737
#	229201
#	233995
#	235791
#	252058
#	258049
#	262561
#	277074
#	290994
#
# Disc length: 3905 seconds
#
# Revision: 0
# Processed by: cddbd v1.5.2PL0 Copyright (c) Steve Scherf et al.
# Submitted via: CDex 1.51
#
DISCID=280f3f24
DTITLE=Mississipi John hurt - the Guitar of Mississipi John Hurt Vol 2 disk 2
DYEAR=1900
DGENRE=Blues
TTITLE0=Introduction
TTITLE1=MJH performs Coffee Blues
TTITLE2=Tuning
TTITLE3=Plays slowly Coffee Blues
TTITLE4=Teaching of Coffee Blues
TTITLE5=Plays slowly Coffee Blues
TTITLE6=Plays Coffee Blues up to tempo
TTITLE7=Manse Libscomb performs Spoonful
TTITLE8=Reverend Gary Davis performs Spoonful
TTITLE9=Discussion of Mance Libscomb's arrangement of spoonful
TTITLE10=MJH performs Monday Morning Blues
TTITLE11=Teaching of 1st 8 bars of Monday Morning Blues
TTITLE12=Plays 1st 8 bars of Monday Morning Blues
TTITLE13=Plays from 10th bar of Monday Morning Blues
TTITLE14=Plays from 10th bar of Monday Morning Blues
TTITLE15=Teaching of 1st variation of Monday Morning Blues
TTITLE16=Teaching of 2nd variation of Monday Morning Blues
TTITLE17=Teaching of 3rd variation of Monday Morning Blues
TTITLE18=Introduction to Candyman
TTITLE19=MJH performs Candyman
TTITLE20=Tuning with capo
TTITLE21=Teaching of introduction of Candyman
TTITLE22=Plays slowly introduction of Candyman
TTITLE23=Plays introduction of Candyman up to tempo
TTITLE24=Teaching of 1st 4 bars of 6th verse of Candyman
TTITLE25=Plays 1st 4 bars of 6th verse of Candyman
TTITLE26=Teaching from 5th bar of 6th verse of Candyman
TTITLE27=Plays from 5th bar ot 6th verse o Candyman
TTITLE28=Plays slowly 6th verse of Candyman
TTITLE29=Plays 6th verse of Candyman up to tempo
TTITLE30=Teaching of 2nd guitar break of Candyman
TTITLE31=Plays slowly 2nd guitar break of Candyman
TTITLE32=Plays 2nd guitar break of Candyman up to tempo
TTITLE33=MJH 1928's recordig of Candyman
TTITLE34=Revered Gary Davis performs his version of Candyman
TTITLE35=Closing thoughts
EXTD=
EXTT0=
EXTT1=
EXTT2=
EXTT3=
EXTT4=
EXTT5=
EXTT6=
EXTT7=
EXTT8=
EXTT9=
EXTT10=
EXTT11=
EXTT12=
EXTT13=
EXTT14=
EXTT15=
EXTT16=
EXTT17=
EXTT18=
EXTT19=
EXTT20=
EXTT21=
EXTT22=
EXTT23=
EXTT24=
EXTT25=
EXTT26=
EXTT27=
EXTT28=
EXTT29=
EXTT30=
EXTT31=
EXTT32=
EXTT33=
EXTT34=
EXTT35=
PLAYORDER=
